<svg viewBox="1101.974 -165.357 1361.062 1084.016" xmlns="http://www.w3.org/2000/svg"><path d="M1193.835 174.472c99.32-171.91 271.62-293.48 466.22-328.82 86.253-15.66 173.18-14.614 260.78 3.14 145.39 29.47 276.56 108.42 373.87 219.13 67.73 77.04 116.31 169.01 143.75 267.99 13.393 48.326 21.347 99.496 23.86 153.51 5.34 114.64-17.83 236.68-108.17 316.34-38.7 34.13-86.46 58.3-135.84 73.67-64.22 19.98-135.22 29.43-203.69 33.77-96.7 6.12-194.02 5.69-290.88 5.2-57.49-.3-112-1.38-168.5-4.82-66.34-4.04-132.58-12.68-196.7-30.6-89.58-25.04-169.06-76.59-212.7-159.85-29.91-57.06-41.56-120.8-43.54-185.65-3.9-127.48 27.77-252.65 91.54-363.01Zm14.81 494.88c27.57 64.68 82.8 106.54 149.04 129.32 57.64 19.82 119.75 28.61 180.3 33.35 48.17 3.77 100.52 5.28 150.82 5.78 64.353.64 128.707.64 193.06 0 47.26-.48 94.467-2.34 141.62-5.58 49.64-3.42 99.27-10.67 145.3-22.13 81.32-20.25 154.34-61.66 188.01-142.36 21.73-52.05 27.22-108.03 25.95-164.25-4.11-182.6-89.42-350.25-232.71-462.53-165.55-129.74-392.48-161.89-587.19-84.5-231.2 91.89-384.52 317.21-380.8 567.79.74 49.99 6.91 98.92 26.6 145.11Z" style="fill:#141414"/><circle cx="1516.015" cy="331.642" r="91.15" style="fill:#141414"/><circle cx="2060.565" cy="331.642" r="91.15" style="fill:#141414"/></svg>